<?xml version="1.0" encoding="UTF-8" standalone="no"?><!DOCTYPE svg PUBLIC "-//W3C//DTD SVG 1.1//EN" "http://www.w3.org/Graphics/SVG/1.1/DTD/svg11.dtd"><svg width="100%" height="100%" viewBox="0 0 512 512" version="1.1" xmlns="http://www.w3.org/2000/svg" xmlns:xlink="http://www.w3.org/1999/xlink" xml:space="preserve" xmlns:serif="http://www.serif.com/" style="fill-rule:evenodd;clip-rule:evenodd;stroke-linejoin:round;stroke-miterlimit:2;"><path d="M256.212,4.532C114.533,4.532 0,119.909 0,262.647C0,376.745 73.385,473.327 175.19,507.51C187.919,510.08 192.581,501.956 192.581,495.123C192.581,489.139 192.161,468.628 192.161,447.257C120.89,462.644 106.048,416.488 106.048,416.488C94.594,386.573 77.623,378.885 77.623,378.885C54.296,363.073 79.322,363.073 79.322,363.073C105.198,364.783 118.776,389.568 118.776,389.568C141.679,428.88 178.584,417.773 193.431,410.934C195.549,394.267 202.341,382.729 209.552,376.321C152.708,370.337 92.9,348.116 92.9,248.97C92.9,220.765 103.074,197.69 119.196,179.743C116.652,173.335 107.742,146.834 121.744,111.366C121.744,111.366 143.378,104.527 192.156,137.861C213.04,132.211 234.577,129.337 256.212,129.313C277.845,129.313 299.898,132.307 320.262,137.861C369.046,104.527 390.679,111.366 390.679,111.366C404.682,146.834 395.766,173.335 393.223,179.743C409.769,197.69 419.524,220.765 419.524,248.97C419.524,348.116 359.716,369.907 302.447,376.321C311.782,384.439 319.837,399.821 319.837,424.181C319.837,458.795 319.418,486.574 319.418,495.118C319.418,501.956 324.085,510.08 336.808,507.515C438.613,473.322 511.999,376.745 511.999,262.647C512.418,119.909 397.466,4.532 256.212,4.532Z" style="fill:#fff;"/></svg>